<svg width="48" height="38" viewBox="0 0 48 38" fill="none" xmlns="http://www.w3.org/2000/svg">
<path fill-rule="evenodd" clip-rule="evenodd" d="M45.9167 37.6666C45.9167 37.6666 49.0001 37.6666 49.0001 34.5555C49.0001 31.4444 45.9167 22.1111 33.5834 22.1111C21.2501 22.1111 18.1667 31.4444 18.1667 34.5555C18.1667 37.6666 21.2501 37.6666 21.2501 37.6666H45.9167ZM21.3179 34.5555H45.8489C45.8634 34.5538 45.8777 34.5518 45.8921 34.5493L45.9167 34.5431C45.9106 33.7218 45.4018 31.3386 43.5734 29.192C41.8714 27.1791 38.8806 25.2222 33.5834 25.2222C28.2893 25.2222 25.2985 27.1822 23.5934 29.192C21.765 31.3386 21.2532 33.7249 21.2501 34.5431C21.2726 34.5475 21.2953 34.5516 21.3179 34.5555ZM33.5834 15.8889C35.2189 15.8889 36.7874 15.2333 37.9439 14.0664C39.1004 12.8995 39.7501 11.3169 39.7501 9.66665C39.7501 8.01641 39.1004 6.43376 37.9439 5.26687C36.7874 4.09998 35.2189 3.44442 33.5834 3.44442C31.9479 3.44442 30.3794 4.09998 29.2229 5.26687C28.0664 6.43376 27.4167 8.01641 27.4167 9.66665C27.4167 11.3169 28.0664 12.8995 29.2229 14.0664C30.3794 15.2333 31.9479 15.8889 33.5834 15.8889ZM42.8334 9.66665C42.8334 10.8923 42.5942 12.106 42.1293 13.2384C41.6644 14.3707 40.9831 15.3996 40.1242 16.2663C39.2652 17.133 38.2455 17.8205 37.1232 18.2895C36.001 18.7586 34.7981 19 33.5834 19C32.3687 19 31.1659 18.7586 30.0436 18.2895C28.9213 17.8205 27.9016 17.133 27.0427 16.2663C26.1837 15.3996 25.5024 14.3707 25.0375 13.2384C24.5727 12.106 24.3334 10.8923 24.3334 9.66665C24.3334 7.19129 25.308 4.81732 27.0427 3.06698C28.7774 1.31664 31.1302 0.333313 33.5834 0.333313C36.0367 0.333313 38.3894 1.31664 40.1242 3.06698C41.8589 4.81732 42.8334 7.19129 42.8334 9.66665ZM21.0527 22.9822C19.8194 22.5903 18.548 22.3327 17.2602 22.2138C16.5367 22.1443 15.8102 22.1101 15.0834 22.1111C2.75008 22.1111 -0.333252 31.4444 -0.333252 34.5555C-0.333252 36.6306 0.693498 37.6666 2.75008 37.6666H15.7494C15.2923 36.6954 15.0644 35.6305 15.0834 34.5555C15.0834 31.4133 16.2458 28.2026 18.4442 25.5209C19.1935 24.6062 20.0661 23.7506 21.0527 22.9822ZM14.8367 25.2222C9.69375 25.2844 6.77383 27.2133 5.09341 29.192C3.25266 31.3511 2.75008 33.7435 2.75008 34.5555H12.0001C12.0001 31.3044 12.996 28.0658 14.8367 25.2222ZM4.29175 11.2222C4.29175 8.74685 5.2663 6.37288 7.00101 4.62254C8.73572 2.8722 11.0885 1.88887 13.5417 1.88887C15.995 1.88887 18.3478 2.8722 20.0825 4.62254C21.8172 6.37288 22.7917 8.74685 22.7917 11.2222C22.7917 13.6976 21.8172 16.0715 20.0825 17.8219C18.3478 19.5722 15.995 20.5555 13.5417 20.5555C11.0885 20.5555 8.73572 19.5722 7.00101 17.8219C5.2663 16.0715 4.29175 13.6976 4.29175 11.2222ZM13.5417 4.99998C11.9062 4.99998 10.3377 5.65553 9.18126 6.82243C8.02478 7.98932 7.37508 9.57197 7.37508 11.2222C7.37508 12.8724 8.02478 14.4551 9.18126 15.622C10.3377 16.7889 11.9062 17.4444 13.5417 17.4444C15.1772 17.4444 16.7458 16.7889 17.9022 15.622C19.0587 14.4551 19.7084 12.8724 19.7084 11.2222C19.7084 9.57197 19.0587 7.98932 17.9022 6.82243C16.7458 5.65553 15.1772 4.99998 13.5417 4.99998Z" fill="white"/>
</svg>
